<svg width="110" height="111" viewBox="0 0 110 111" fill="none" xmlns="http://www.w3.org/2000/svg">
<path d="M21 55.5C21 59.9649 21.8794 64.3862 23.5881 68.5112C25.2968 72.6363 27.8012 76.3844 30.9584 79.5416C34.1156 82.6988 37.8637 85.2032 41.9888 86.9119C46.1138 88.6206 50.5351 89.5 55 89.5C59.4649 89.5 63.8862 88.6206 68.0112 86.9119C72.1363 85.2032 75.8844 82.6988 79.0416 79.5416C82.1988 76.3844 84.7032 72.6363 86.4119 68.5112C88.1206 64.3862 89 59.9649 89 55.5C89 46.4826 85.4179 37.8346 79.0416 31.4584C72.6654 25.0821 64.0174 21.5 55 21.5C45.9826 21.5 37.3346 25.0821 30.9584 31.4584C24.5821 37.8346 21 46.4826 21 55.5Z" fill="#FBE9E7"/>
<path d="M55 37.1667V55.5M55 73.8333H55.0458M13.75 55.5C13.75 60.917 14.817 66.281 16.89 71.2857C18.963 76.2904 22.0014 80.8377 25.8318 84.6682C29.6623 88.4986 34.2096 91.537 39.2143 93.61C44.219 95.683 49.583 96.75 55 96.75C60.417 96.75 65.781 95.683 70.7857 93.61C75.7904 91.537 80.3377 88.4986 84.1682 84.6682C87.9986 80.8377 91.037 76.2904 93.11 71.2857C95.183 66.281 96.25 60.917 96.25 55.5C96.25 44.5598 91.904 34.0677 84.1682 26.3318C76.4323 18.596 65.9402 14.25 55 14.25C44.0598 14.25 33.5677 18.596 25.8318 26.3318C18.096 34.0677 13.75 44.5598 13.75 55.5Z" stroke="#D5230D" stroke-width="6" stroke-linecap="round" stroke-linejoin="round"/>
</svg>
