<svg width="20" height="14" viewBox="0 0 20 14" fill="none" xmlns="http://www.w3.org/2000/svg">
<path d="M19.0618 4.52659C18.9721 4.41722 18.8384 4.35337 18.698 4.35337H16.9137C16.4734 3.19202 15.8998 2.05413 15.2477 1.62461C12.9921 0.140756 7.00933 0.140756 4.75374 1.62461C4.10124 2.0546 3.52995 3.19389 3.08728 4.35337H1.303C1.16124 4.35337 1.02792 4.41722 0.939197 4.52659C0.850007 4.6355 0.81433 4.77961 0.843435 4.91809L1.10772 6.19868C1.15279 6.41697 1.34525 6.57281 1.56729 6.57281H2.09586C1.5856 7.16147 1.33821 7.90269 1.33492 8.64438C1.33164 9.5607 1.67948 10.3888 2.31555 10.9746C2.32259 10.9807 2.32963 10.9849 2.33621 10.991V12.7828C2.33621 13.171 2.65166 13.487 3.04034 13.487H4.68615C5.07483 13.487 5.39028 13.171 5.39028 12.7828V12.0627H14.6103V12.7828C14.6103 13.171 14.9257 13.487 15.3144 13.487H16.9602C17.3479 13.487 17.6643 13.171 17.6643 12.7828V11.0262C18.3394 10.408 18.6619 9.55742 18.6661 8.70823C18.6689 7.94119 18.4102 7.17274 17.8699 6.57188H18.4337C18.6567 6.57188 18.8492 6.41603 18.8933 6.19727L19.158 4.91715C19.1853 4.77961 19.151 4.63644 19.0618 4.52659ZM5.52689 2.80052C7.32478 1.6171 12.6758 1.6171 14.4727 2.80052C14.822 3.0296 15.2712 3.95577 15.6829 5.0899H4.31765C4.72839 3.95624 5.17763 3.03053 5.52689 2.80052ZM3.42105 8.82089C3.42105 8.05573 4.04163 7.43609 4.80632 7.43609C5.57195 7.43609 6.19159 8.05573 6.19159 8.82089C6.19159 9.58605 5.57195 10.2062 4.80632 10.2062C4.04163 10.2062 3.42105 9.58605 3.42105 8.82089ZM15.2125 10.2062C14.4478 10.2062 13.8273 9.58605 13.8273 8.82089C13.8273 8.05573 14.4478 7.43609 15.2125 7.43609C15.9782 7.43609 16.5978 8.05573 16.5978 8.82089C16.5978 9.58605 15.9772 10.2062 15.2125 10.2062Z" fill="#312E2E"/>
</svg>
