<svg width="14" height="14" viewBox="0 0 14 14" fill="none" xmlns="http://www.w3.org/2000/svg">
<path d="M1.45787 6.41683V4.66678C1.61887 4.66678 1.74955 4.53611 1.74955 4.3751C1.74955 4.2141 1.61887 4.08342 1.45787 4.08342C0.653453 4.08342 -0.000488281 4.73793 -0.000488281 5.5418V6.12514C-0.000488281 6.60758 0.392095 7.00016 0.874532 7.00016H1.45787C1.61887 7.00016 1.74955 6.86948 1.74955 6.70848C1.74955 6.54748 1.61887 6.41683 1.45787 6.41683Z" fill="#312E2E"/>
<path d="M12.5415 4.08342C12.3805 4.08342 12.2498 4.2141 12.2498 4.3751C12.2498 4.53611 12.3805 4.66678 12.5415 4.66678V6.41683C12.3805 6.41683 12.2498 6.5475 12.2498 6.70851C12.2498 6.86951 12.3805 7.00016 12.5415 7.00016H13.1248C13.6073 7.00016 13.9998 6.60758 13.9998 6.12514V5.5418C13.9998 4.73793 13.3459 4.08342 12.5415 4.08342Z" fill="#312E2E"/>
<path d="M4.95795 12.2503C4.79695 12.2503 4.66627 12.381 4.66627 12.542H2.91623C2.91623 12.381 2.78555 12.2503 2.62455 12.2503C2.46354 12.2503 2.33286 12.381 2.33286 12.542V13.1253C2.33286 13.6077 2.72545 14.0003 3.20788 14.0003H4.37461C4.85705 14.0003 5.24963 13.6077 5.24963 13.1253V12.542C5.24963 12.381 5.11895 12.2503 4.95795 12.2503Z" fill="#312E2E"/>
<path d="M11.3748 12.2503C11.2138 12.2503 11.0831 12.381 11.0831 12.542H9.33305C9.33305 12.381 9.20237 12.2503 9.04137 12.2503C8.88037 12.2503 8.74971 12.381 8.74971 12.542V13.1253C8.74971 13.6077 9.1423 14.0003 9.62474 14.0003H10.7914C11.2739 14.0003 11.6665 13.6077 11.6665 13.1253V12.542C11.6665 12.381 11.5358 12.2503 11.3748 12.2503Z" fill="#312E2E"/>
<path d="M11.3748 0H2.62457C1.82013 0 1.16621 0.654515 1.16621 1.45836V11.3753C1.16621 12.1791 1.82016 12.8336 2.62457 12.8336H11.3748C12.1792 12.8336 12.8331 12.1791 12.8331 11.3753V1.45836C12.8331 0.654515 12.1792 0 11.3748 0ZM3.79128 1.1667H10.2081C10.6905 1.1667 11.0831 1.55929 11.0831 2.04172C11.0831 2.52416 10.6905 2.91674 10.2081 2.91674H3.79128C3.30884 2.91674 2.91626 2.52416 2.91626 2.04172C2.91626 1.55929 3.30884 1.1667 3.79128 1.1667ZM3.79128 11.0836C3.30884 11.0836 2.91626 10.691 2.91626 10.2086C2.91626 9.72613 3.30884 9.33354 3.79128 9.33354C4.27371 9.33354 4.6663 9.72613 4.6663 10.2086C4.6663 10.691 4.27369 11.0836 3.79128 11.0836ZM10.2081 11.0836C9.72564 11.0836 9.33305 10.691 9.33305 10.2086C9.33305 9.72613 9.72564 9.33354 10.2081 9.33354C10.6905 9.33354 11.0831 9.72613 11.0831 10.2086C11.0831 10.691 10.6905 11.0836 10.2081 11.0836ZM11.6665 7.29185C11.6665 7.77428 11.2739 8.16687 10.7914 8.16687H3.20791C2.72547 8.16687 2.33289 7.77428 2.33289 7.29185V4.3751C2.33289 3.89266 2.72547 3.50008 3.20791 3.50008H10.7914C11.2738 3.50008 11.6664 3.89266 11.6664 4.3751L11.6665 7.29185Z" fill="#312E2E"/>
</svg>
