<svg width="14" height="16" viewBox="0 0 14 16" fill="none" xmlns="http://www.w3.org/2000/svg">
<path d="M10.354 14.6969C8.10786 14.6969 5.90274 14.6969 3.64633 14.6969C3.64633 14.8815 3.65658 15.0456 3.64633 15.22C3.62581 15.5789 3.43094 15.7738 3.07197 15.7841C2.77453 15.7943 2.46684 15.7943 2.1694 15.7841C1.64633 15.7841 1.46171 15.5995 1.45146 15.0764C1.45146 14.9636 1.45146 14.8507 1.45146 14.6764C1.26684 14.6764 1.09248 14.6866 0.928378 14.6764C0.559147 14.6559 0.354019 14.4507 0.343763 14.0815C0.333506 13.661 0.251455 13.1995 0.825814 13.0251C0.877096 13.0148 0.897609 12.8507 0.897609 12.7482C0.907865 12.1943 0.897609 11.6405 0.897609 11.0764C0.897609 10.1943 1.12325 9.90715 2.01556 9.661C2.01556 9.53792 2.01556 9.40459 2.01556 9.261C2.01556 6.56356 2.02581 3.85587 2.0053 1.15843C2.0053 0.840485 2.08735 0.655869 2.38479 0.553305C2.61043 0.471254 2.81556 0.348177 3.09248 0.214844V3.30202C3.34889 2.93279 3.56428 2.57382 3.82069 2.23536C4.0053 1.9892 4.26171 1.8969 4.57966 1.8969C6.1694 1.90715 7.75915 1.91741 9.33863 1.8969C9.75915 1.88664 10.0566 2.04048 10.2925 2.35843C10.5079 2.65587 10.6925 2.97382 10.9079 3.32254C10.9079 2.2969 10.9079 1.29177 10.9079 0.214844C11.2771 0.399459 11.5848 0.522536 11.8515 0.707151C11.954 0.778946 11.9848 0.984074 11.9848 1.12766C11.995 3.86613 11.995 6.59433 11.995 9.33279V9.67125C12.9079 9.94818 13.1027 10.2148 13.1027 11.1482C13.1027 11.6815 13.113 12.2148 13.1027 12.7482C13.1027 12.9328 13.154 13.0148 13.3181 13.1174C13.472 13.2097 13.5745 13.4148 13.6463 13.5995C13.6976 13.7328 13.6566 13.8969 13.6566 14.0507C13.6463 14.4815 13.4412 14.6764 13.0104 14.6969C12.8771 14.6969 12.7335 14.6969 12.5386 14.6969C12.5386 14.8815 12.5489 15.0354 12.5386 15.1892C12.5181 15.5995 12.313 15.7943 11.9027 15.8046C11.6156 15.8148 11.3181 15.8046 11.0309 15.8046C10.5386 15.8046 10.3438 15.5995 10.3438 15.1072C10.3438 14.9636 10.354 14.8405 10.354 14.6969ZM6.95915 6.91228C7.97453 6.91228 9.00017 6.90202 10.0156 6.91228C10.2822 6.91228 10.354 6.81997 10.354 6.57382C10.3438 6.03023 10.3438 5.48664 10.354 4.94305C10.354 4.73792 10.2925 4.65587 10.0771 4.65587C8.02581 4.66613 5.97453 4.66613 3.92325 4.65587C3.70787 4.65587 3.63607 4.73792 3.64633 4.94305C3.65658 5.48664 3.65658 6.03023 3.64633 6.57382C3.63607 6.84048 3.70787 6.92254 3.97453 6.92254C4.9694 6.91228 5.96428 6.91228 6.95915 6.91228ZM6.98992 8.55331C6.36428 8.55331 5.73863 8.56356 5.11299 8.54305C4.84633 8.53279 4.74376 8.61484 4.74376 8.89177C4.75402 9.96869 4.75402 11.0456 4.74376 12.1225C4.74376 12.3687 4.81556 12.4713 5.08222 12.4713C6.35402 12.461 7.62581 12.461 8.89761 12.4713C9.16428 12.4713 9.23607 12.3687 9.23607 12.1225C9.22581 11.0559 9.22581 9.9892 9.23607 8.93279C9.23607 8.61484 9.12325 8.53279 8.82581 8.54305C8.22069 8.57382 7.6053 8.55331 6.98992 8.55331ZM2.8053 12.4815C3.00017 12.4815 3.2053 12.502 3.38992 12.4713C3.49248 12.4507 3.65658 12.3174 3.65658 12.2559C3.62581 11.9584 3.83094 11.6097 3.51299 11.3533C3.49248 11.3328 3.4412 11.3431 3.41043 11.3431C3.02069 11.3431 2.62069 11.3225 2.23094 11.3533C2.13863 11.3636 1.99504 11.4969 1.98479 11.5892C1.87197 12.4507 1.90274 12.4815 2.77453 12.4815H2.8053ZM11.195 11.3431C11.0002 11.3431 10.795 11.3225 10.6104 11.3533C10.5079 11.3738 10.3335 11.4969 10.3438 11.5687C10.3745 11.8661 10.1694 12.2148 10.4771 12.4713C10.5079 12.4918 10.5694 12.4815 10.6104 12.4815H11.7591C11.954 12.4815 12.0258 12.3892 12.0258 12.2046C12.0156 11.1482 12.1181 11.3636 11.2361 11.3431C11.2156 11.3431 11.2053 11.3431 11.195 11.3431Z" fill="#312E2E"/>
</svg>
