<svg width="17" height="20" viewBox="0 0 17 20" fill="none" xmlns="http://www.w3.org/2000/svg">
<path d="M10.5 1V5C10.5 5.26522 10.6054 5.51957 10.7929 5.70711C10.9804 5.89464 11.2348 6 11.5 6H15.5M10.5 1H3.5C2.96957 1 2.46086 1.21071 2.08579 1.58579C1.71071 1.96086 1.5 2.46957 1.5 3V17C1.5 17.5304 1.71071 18.0391 2.08579 18.4142C2.46086 18.7893 2.96957 19 3.5 19H13.5C14.0304 19 14.5391 18.7893 14.9142 18.4142C15.2893 18.0391 15.5 17.5304 15.5 17V6M10.5 1L15.5 6M8.5 15H8.51M8.5 9V12" stroke="#D5230D" stroke-width="2" stroke-linecap="round" stroke-linejoin="round"/>
</svg>
