<svg width="14" height="15" viewBox="0 0 14 15" fill="none" xmlns="http://www.w3.org/2000/svg">
<path d="M5.00008 6.33314C5.00008 6.86357 5.2108 7.37228 5.58587 7.74735C5.96094 8.12242 6.46965 8.33314 7.00008 8.33314C7.53052 8.33314 8.03923 8.12242 8.4143 7.74735C8.78937 7.37228 9.00008 6.86357 9.00008 6.33314C9.00008 5.80271 8.78937 5.294 8.4143 4.91892C8.03923 4.54385 7.53052 4.33314 7.00008 4.33314C6.46965 4.33314 5.96094 4.54385 5.58587 4.91892C5.2108 5.294 5.00008 5.80271 5.00008 6.33314Z" stroke="#746E6E" stroke-width="1.5" stroke-linecap="round" stroke-linejoin="round"/>
<path d="M10.7714 10.1045L7.94275 12.9331C7.69274 13.1829 7.35381 13.3232 7.00042 13.3232C6.64703 13.3232 6.30809 13.1829 6.05808 12.9331L3.22875 10.1045C2.4829 9.35858 1.97497 8.40827 1.76921 7.37371C1.56344 6.33916 1.66908 5.26681 2.07275 4.29229C2.47643 3.31777 3.16002 2.48483 4.03707 1.89881C4.91413 1.31279 5.94526 1 7.00008 1C8.05491 1 9.08604 1.31279 9.9631 1.89881C10.8402 2.48483 11.5237 3.31777 11.9274 4.29229C12.3311 5.26681 12.4367 6.33916 12.231 7.37371C12.0252 8.40827 11.5173 9.35858 10.7714 10.1045Z" stroke="#746E6E" stroke-width="1.5" stroke-linecap="round" stroke-linejoin="round"/>
</svg>
