<svg width="217" height="60" viewBox="0 0 217 60" fill="none" xmlns="http://www.w3.org/2000/svg">
<circle cx="25.8195" cy="25.8195" r="25.8195" fill="url(#paint0_linear_4007_1386)"/>
<g clip-path="url(#clip0_4007_1386)">
<path d="M29.1982 21.8489C29.9841 22.7172 30.2801 23.9348 29.7464 25.5453C29.3049 26.467 28.6451 26.4039 28.5432 25.3076C28.4413 24.5411 28.6548 23.2411 29.1982 21.8489C28.6694 21.2667 27.9222 20.8447 27.044 20.5779C26.5201 21.6306 26.098 22.7511 25.8214 23.9445C24.6958 27.8398 27.7961 32.5113 31.5755 28.5869C34.1905 25.2542 33.8121 21.1406 31.3475 18.3125C31.0224 18.72 30.707 19.1323 30.4014 19.5543C29.8968 20.2965 29.4941 21.0824 29.1982 21.844V21.8489Z" fill="white"/>
<path d="M20.9652 15.1782C12.1497 16.648 2.72782 28.7075 8.13741 49.0913L8.16167 49.0816C8.03553 46.9763 7.89483 45.3318 7.98701 43.4351C8.46247 33.6895 10.7525 25.3021 19.5194 21.305C21.8288 20.1892 24.8417 19.903 27.0492 20.5725C27.7429 19.1802 28.6211 17.9141 29.606 16.7644C27.4615 15.3092 24.502 14.5815 20.97 15.1685L20.9652 15.1782Z" fill="white"/>
<g style="mix-blend-mode:overlay">
<path d="M31.3524 18.3125C31.3524 18.3125 29.4506 20.0783 29.2031 21.8489C29.2031 21.8489 29.8629 22.5619 29.9406 23.2653C30.0182 23.9687 33.3901 23.1053 33.1281 21.6306C33.1281 21.6306 32.5896 19.6805 31.3524 18.3125Z" fill="white"/>
</g>
<path d="M46.9018 6.90812C43.9908 7.83951 42.0792 8.23729 38.0427 10.3087C35.384 11.6718 32.1382 13.8256 29.6056 16.7701C28.6159 17.9198 27.7378 19.1859 27.0488 20.5782C27.927 20.845 28.6741 21.267 29.203 21.8491C29.5038 21.0875 29.9016 20.3016 30.4062 19.5594C30.707 19.1374 31.0272 18.7251 31.3522 18.3176C34.0886 14.8589 37.5187 11.9289 41.3272 9.7799C44.3207 8.15482 47.091 6.84991 46.9018 6.90812Z" fill="white"/>
</g>
<path d="M70.2135 39.7163V17.8461H59.8818V11.9238H87.0077V17.8461H76.6761V39.7163H70.2135Z" fill="black"/>
<path d="M98.9143 39.7163H92.4517V11.9238H111.712C113.498 11.9238 115.014 12.3186 116.261 13.1083C117.537 13.8697 118.486 14.8991 119.11 16.1963C119.762 17.4936 120.088 18.9178 120.088 20.4688C120.088 22.4429 119.535 24.1914 118.43 25.7143C117.324 27.209 115.765 28.1537 113.753 28.5485C113.809 28.6331 113.866 28.7177 113.923 28.8023C114.008 28.887 114.079 28.9998 114.135 29.1408L120.513 39.7163H113.243L106.695 28.76H98.9143V39.7163ZM98.9143 17.8461V22.8378H111.712C112.307 22.8378 112.775 22.6403 113.115 22.2455C113.455 21.8507 113.625 21.3431 113.625 20.7227V19.9612C113.625 19.3126 113.455 18.805 113.115 18.4383C112.775 18.0435 112.307 17.8461 111.712 17.8461H98.9143Z" fill="black"/>
<path d="M126.722 39.7163V11.9238H133.184V39.7163H126.722Z" fill="black"/>
<path d="M159.146 39.7163H140.439V11.9238H158.168C159.954 11.9238 161.471 12.3186 162.718 13.1083C163.993 13.8697 164.943 14.8991 165.566 16.1963C166.218 17.4936 166.544 18.9178 166.544 20.4688C166.544 21.3713 166.374 22.2455 166.034 23.0916C165.694 23.9376 165.198 24.699 164.546 25.3759C165.538 26.0527 166.289 26.8988 166.799 27.914C167.31 28.9011 167.565 29.9727 167.565 31.129C167.565 32.68 167.239 34.1183 166.587 35.4438C165.963 36.741 165.014 37.7845 163.738 38.5741C162.463 39.3356 160.932 39.7163 159.146 39.7163ZM146.901 17.8461V22.8378H158.168C158.764 22.8378 159.231 22.6403 159.572 22.2455C159.912 21.8507 160.082 21.3431 160.082 20.7227V19.9612C160.082 19.3126 159.912 18.805 159.572 18.4383C159.231 18.0435 158.764 17.8461 158.168 17.8461H146.901ZM146.901 28.76V33.794H159.146C159.742 33.794 160.223 33.5966 160.592 33.2018C160.96 32.8069 161.145 32.2993 161.145 31.6789V30.8751C161.145 30.2265 160.96 29.7189 160.592 29.3523C160.252 28.9575 159.77 28.76 159.146 28.76H146.901Z" fill="black"/>
<path d="M173.754 39.7163V11.9238H180.216V39.7163H173.754Z" fill="black"/>
<path d="M187.471 39.7163V11.9238H193.934V23.9799L206.901 11.9238H216L203.287 23.6838L215.745 39.7163H207.879L198.738 27.914L193.934 32.398V39.7163H187.471Z" fill="black"/>
<path d="M154.116 56V48.116H161.628V49.796H155.94V51.212H160.164V52.892H155.94V54.32H161.628V56H154.116ZM163.632 52.892V51.212H169.092V52.892H163.632ZM176.599 56H171.319V48.116H176.323C176.827 48.116 177.255 48.228 177.607 48.452C177.967 48.668 178.235 48.96 178.411 49.328C178.595 49.696 178.687 50.1 178.687 50.54C178.687 50.796 178.639 51.044 178.543 51.284C178.447 51.524 178.307 51.74 178.123 51.932C178.403 52.124 178.615 52.364 178.759 52.652C178.903 52.932 178.975 53.236 178.975 53.564C178.975 54.004 178.883 54.412 178.699 54.788C178.523 55.156 178.255 55.452 177.895 55.676C177.535 55.892 177.103 56 176.599 56ZM173.143 49.796V51.212H176.323C176.491 51.212 176.623 51.156 176.719 51.044C176.815 50.932 176.863 50.788 176.863 50.612V50.396C176.863 50.212 176.815 50.068 176.719 49.964C176.623 49.852 176.491 49.796 176.323 49.796H173.143ZM173.143 52.892V54.32H176.599C176.767 54.32 176.903 54.264 177.007 54.152C177.111 54.04 177.163 53.896 177.163 53.72V53.492C177.163 53.308 177.111 53.164 177.007 53.06C176.911 52.948 176.775 52.892 176.599 52.892H173.143ZM182.036 56H180.104L183.236 48.116H185.672L188.792 56H186.836L186.08 54.068H182.78L182.036 56ZM184.412 49.88L183.416 52.388H185.456L184.412 49.88ZM190.401 55.04C190.041 54.648 189.861 54.156 189.861 53.564V53.408H191.673V53.564C191.673 53.876 191.889 54.112 192.321 54.272C192.665 54.4 193.069 54.464 193.533 54.464C194.053 54.464 194.473 54.404 194.793 54.284C195.201 54.124 195.405 53.872 195.405 53.528C195.405 53.232 195.181 53.032 194.733 52.928C194.557 52.88 194.337 52.848 194.073 52.832C193.921 52.824 193.721 52.82 193.473 52.82C192.425 52.82 191.585 52.66 190.953 52.34C190.321 52.02 190.005 51.404 190.005 50.492C190.005 49.588 190.337 48.94 191.001 48.548C191.673 48.156 192.517 47.96 193.533 47.96C194.133 47.96 194.701 48.052 195.237 48.236C195.773 48.42 196.213 48.708 196.557 49.1C196.901 49.484 197.073 49.964 197.073 50.54V50.708H195.261V50.54C195.261 50.236 195.069 50.004 194.685 49.844C194.349 49.708 193.965 49.64 193.533 49.64C193.061 49.64 192.677 49.696 192.381 49.808C192.013 49.936 191.829 50.164 191.829 50.492C191.829 50.772 192.037 50.956 192.453 51.044C192.621 51.084 192.825 51.112 193.065 51.128C193.201 51.136 193.385 51.14 193.617 51.14C194.705 51.14 195.577 51.304 196.233 51.632C196.897 51.96 197.229 52.592 197.229 53.528C197.229 54.464 196.877 55.136 196.173 55.544C195.477 55.952 194.597 56.156 193.533 56.156C192.933 56.156 192.353 56.068 191.793 55.892C191.233 55.708 190.769 55.424 190.401 55.04ZM201.234 56V49.796H198.318V48.116H205.974V49.796H203.058V56H201.234ZM207.682 56V48.116H209.506V51.536L213.166 48.116H215.734L212.146 51.452L215.662 56H213.442L210.862 52.652L209.506 53.924V56H207.682Z" fill="black"/>
<defs>
<linearGradient id="paint0_linear_4007_1386" x1="3.02729" y1="45.0006" x2="57.5903" y2="13.2375" gradientUnits="userSpaceOnUse">
<stop stop-color="#AE1F0D"/>
<stop offset="1" stop-color="#E8260E"/>
</linearGradient>
<clipPath id="clip0_4007_1386">
<rect width="40.3657" height="42.184" fill="white" transform="translate(6.5459 6.9082)"/>
</clipPath>
</defs>
</svg>
