<svg width="133" height="37" viewBox="0 0 133 37" fill="none" xmlns="http://www.w3.org/2000/svg">
<ellipse cx="15.8249" cy="15.922" rx="15.8249" ry="15.922" fill="url(#paint0_linear_4178_16582)"/>
<mask id="mask0_4178_16582" style="mask-type:alpha" maskUnits="userSpaceOnUse" x="0" y="0" width="32" height="32">
<ellipse cx="15.8249" cy="15.922" rx="15.8249" ry="15.922" fill="url(#paint1_linear_4178_16582)"/>
</mask>
<g mask="url(#mask0_4178_16582)">
<path d="M17.8957 13.4737C18.3774 14.0092 18.5588 14.76 18.2317 15.7532C17.9611 16.3216 17.5567 16.2827 17.4942 15.6066C17.4318 15.134 17.5626 14.3323 17.8957 13.4737C17.5716 13.1147 17.1136 12.8545 16.5754 12.69C16.2543 13.3391 15.9955 14.0301 15.8261 14.766C15.1362 17.1681 17.0363 20.0489 19.3527 17.6288C20.9555 15.5737 20.7236 13.037 19.213 11.293C19.0137 11.5442 18.8205 11.7985 18.6331 12.0588C18.3239 12.5165 18.0771 13.0011 17.8957 13.4707V13.4737Z" fill="white"/>
<path d="M12.8497 9.36202C7.44665 10.2684 1.67193 17.7051 4.98749 30.2751L5.00235 30.2691C4.92504 28.9709 4.83881 27.9568 4.89531 26.7871C5.18672 20.7773 6.59025 15.6051 11.9635 13.1402C13.379 12.4522 15.2256 12.2757 16.5786 12.6885C17.0038 11.83 17.542 11.0492 18.1456 10.3402C16.8313 9.44279 15.0174 8.99408 12.8526 9.35604L12.8497 9.36202Z" fill="white"/>
<g style="mix-blend-mode:overlay">
<path d="M19.216 11.293C19.216 11.293 18.0503 12.3818 17.8987 13.4737C17.8987 13.4737 18.3031 13.9135 18.3507 14.3472C18.3982 14.781 20.4649 14.2485 20.3043 13.3391C20.3043 13.3391 19.9743 12.1366 19.216 11.293Z" fill="white"/>
</g>
<path d="M28.7463 4.26092C26.9622 4.83528 25.7906 5.08057 23.3165 6.35791C21.687 7.19851 19.6977 8.5267 18.1455 10.3425C17.5388 11.0515 17.0006 11.8322 16.5784 12.6908C17.1166 12.8553 17.5745 13.1156 17.8986 13.4745C18.083 13.0049 18.3268 12.5203 18.6361 12.0626C18.8205 11.8023 19.0167 11.548 19.2159 11.2968C20.8931 9.16388 22.9954 7.35705 25.3297 6.03185C27.1644 5.02972 28.8623 4.22502 28.7463 4.26092Z" fill="white"/>
</g>
<path d="M43.034 24.4922V11.0056H36.7017V7.35352H53.3272V11.0056H46.9949V24.4922H43.034Z" fill="black"/>
<path d="M60.6248 24.4922H56.6638V7.35352H68.4685C69.563 7.35352 70.4924 7.59699 71.2568 8.08393C72.0386 8.55348 72.6206 9.18825 73.0028 9.98823C73.4023 10.7882 73.6021 11.6664 73.6021 12.6229C73.6021 13.8403 73.2633 14.9185 72.5858 15.8576C71.9083 16.7794 70.9528 17.3619 69.7193 17.6054C69.7541 17.6576 69.7888 17.7098 69.8236 17.7619C69.8757 17.8141 69.9191 17.8837 69.9539 17.9706L73.8627 24.4922H69.4066L65.3936 17.7358H60.6248V24.4922ZM60.6248 11.0056V14.0838H68.4685C68.8333 14.0838 69.12 13.962 69.3285 13.7186C69.5369 13.4751 69.6412 13.1621 69.6412 12.7795V12.3099C69.6412 11.9099 69.5369 11.5969 69.3285 11.3708C69.12 11.1273 68.8333 11.0056 68.4685 11.0056H60.6248Z" fill="black"/>
<path d="M77.668 24.4922V7.35352H81.6289V24.4922H77.668Z" fill="black"/>
<path d="M97.5412 24.4922H86.0753V7.35352H96.9419C98.0363 7.35352 98.9658 7.59699 99.7301 8.08393C100.512 8.55348 101.094 9.18825 101.476 9.98823C101.876 10.7882 102.075 11.6664 102.075 12.6229C102.075 13.1794 101.971 13.7186 101.763 14.2403C101.554 14.762 101.25 15.2316 100.851 15.6489C101.459 16.0663 101.919 16.5881 102.232 17.2141C102.545 17.8228 102.701 18.4837 102.701 19.1967C102.701 20.1532 102.501 21.0401 102.102 21.8575C101.719 22.6575 101.137 23.3009 100.356 23.7879C99.5738 24.2574 98.6357 24.4922 97.5412 24.4922ZM90.0363 11.0056V14.0838H96.9419C97.3067 14.0838 97.5933 13.962 97.8018 13.7186C98.0103 13.4751 98.1145 13.1621 98.1145 12.7795V12.3099C98.1145 11.9099 98.0103 11.5969 97.8018 11.3708C97.5933 11.1273 97.3067 11.0056 96.9419 11.0056H90.0363ZM90.0363 17.7358V20.8401H97.5412C97.906 20.8401 98.2014 20.7184 98.4272 20.4749C98.6531 20.2314 98.766 19.9184 98.766 19.5358V19.0402C98.766 18.6402 98.6531 18.3271 98.4272 18.1011C98.2187 17.8576 97.9234 17.7358 97.5412 17.7358H90.0363Z" fill="black"/>
<path d="M106.494 24.4922V7.35352H110.455V24.4922H106.494Z" fill="black"/>
<path d="M114.901 24.4922V7.35352H118.862V14.7881L126.81 7.35352H132.387L124.595 14.6055L132.231 24.4922H127.41L121.807 17.2141L118.862 19.9793V24.4922H114.901Z" fill="black"/>
<path d="M94.4583 34.5342V29.6724H99.0624V30.7084H95.5762V31.5816H98.1651V32.6176H95.5762V33.4982H99.0624V34.5342H94.4583Z" fill="black"/>
<path d="M100.29 32.6176V31.5816H103.637V32.6176H100.29Z" fill="black"/>
<path d="M108.238 34.5342H105.002V29.6724H108.069C108.378 29.6724 108.64 29.7414 108.856 29.8796C109.077 30.0128 109.241 30.1928 109.349 30.4198C109.462 30.6467 109.518 30.8958 109.518 31.1672C109.518 31.325 109.489 31.478 109.43 31.626C109.371 31.774 109.285 31.9072 109.172 32.0256C109.344 32.144 109.474 32.292 109.562 32.4696C109.65 32.6422 109.694 32.8297 109.694 33.032C109.694 33.3033 109.638 33.5549 109.525 33.7868C109.417 34.0137 109.253 34.1962 109.033 34.3344C108.812 34.4676 108.547 34.5342 108.238 34.5342ZM106.12 30.7084V31.5816H108.069C108.172 31.5816 108.253 31.547 108.312 31.478C108.371 31.4089 108.4 31.3201 108.4 31.2116V31.0784C108.4 30.9649 108.371 30.8761 108.312 30.812C108.253 30.7429 108.172 30.7084 108.069 30.7084H106.12ZM106.12 32.6176V33.4982H108.238C108.341 33.4982 108.425 33.4636 108.488 33.3946C108.552 33.3255 108.584 33.2367 108.584 33.1282V32.9876C108.584 32.8741 108.552 32.7853 108.488 32.7212C108.429 32.6521 108.346 32.6176 108.238 32.6176H106.12Z" fill="black"/>
<path d="M111.571 34.5342H110.386L112.306 29.6724H113.799L115.711 34.5342H114.513L114.049 33.3428H112.027L111.571 34.5342ZM113.027 30.7602L112.416 32.3068H113.667L113.027 30.7602Z" fill="black"/>
<path d="M116.698 33.9422C116.477 33.7004 116.367 33.397 116.367 33.032V32.9358H117.477V33.032C117.477 33.2244 117.61 33.3699 117.874 33.4686C118.085 33.5475 118.333 33.587 118.617 33.587C118.936 33.587 119.193 33.55 119.389 33.476C119.64 33.3773 119.765 33.2219 119.765 33.0098C119.765 32.8272 119.627 32.7039 119.353 32.6398C119.245 32.6102 119.11 32.5904 118.948 32.5806C118.855 32.5756 118.732 32.5732 118.58 32.5732C117.938 32.5732 117.423 32.4745 117.036 32.2772C116.649 32.0798 116.455 31.7 116.455 31.1376C116.455 30.5801 116.658 30.1805 117.065 29.9388C117.477 29.697 117.994 29.5762 118.617 29.5762C118.985 29.5762 119.333 29.6329 119.662 29.7464C119.99 29.8598 120.26 30.0374 120.471 30.2792C120.681 30.516 120.787 30.812 120.787 31.1672V31.2708H119.676V31.1672C119.676 30.9797 119.559 30.8366 119.323 30.738C119.117 30.6541 118.882 30.6122 118.617 30.6122C118.328 30.6122 118.093 30.6467 117.911 30.7158C117.686 30.7947 117.573 30.9353 117.573 31.1376C117.573 31.3102 117.7 31.4237 117.955 31.478C118.058 31.5026 118.183 31.5199 118.33 31.5298C118.414 31.5347 118.526 31.5372 118.669 31.5372C119.336 31.5372 119.87 31.6383 120.272 31.8406C120.679 32.0428 120.882 32.4326 120.882 33.0098C120.882 33.587 120.667 34.0014 120.235 34.253C119.809 34.5046 119.269 34.6304 118.617 34.6304C118.249 34.6304 117.894 34.5761 117.551 34.4676C117.208 34.3541 116.923 34.179 116.698 33.9422Z" fill="black"/>
<path d="M123.337 34.5342V30.7084H121.55V29.6724H126.242V30.7084H124.455V34.5342H123.337Z" fill="black"/>
<path d="M127.289 34.5342V29.6724H128.407V31.7814L130.65 29.6724H132.224L130.025 31.7296L132.18 34.5342H130.82L129.238 32.4696L128.407 33.254V34.5342H127.289Z" fill="black"/>
<defs>
<linearGradient id="paint0_linear_4178_16582" x1="1.85543" y1="27.7504" x2="35.4006" y2="8.34172" gradientUnits="userSpaceOnUse">
<stop stop-color="#AE1F0D"/>
<stop offset="1" stop-color="#E8260E"/>
</linearGradient>
<linearGradient id="paint1_linear_4178_16582" x1="1.85543" y1="27.7504" x2="35.4006" y2="8.34172" gradientUnits="userSpaceOnUse">
<stop stop-color="#AE1F0D"/>
<stop offset="1" stop-color="#E8260E"/>
</linearGradient>
</defs>
</svg>
