<svg width="32" height="32" viewBox="0 0 32 32" fill="none" xmlns="http://www.w3.org/2000/svg">
<g clip-path="url(#clip0_4288_15220)">
<rect width="32" height="32" rx="16" fill="#F5F5F5"/>
<path d="M15.9998 5.66602C17.3184 5.66602 18.6073 6.05701 19.7036 6.78955C20.8 7.52209 21.6545 8.56329 22.159 9.78146C22.6636 10.9996 22.7956 12.3401 22.5384 13.6333C22.2812 14.9265 21.6462 16.1144 20.7139 17.0467C19.7815 17.9791 18.5936 18.614 17.3004 18.8713C16.0072 19.1285 14.6668 18.9965 13.4486 18.4919C12.2304 17.9873 11.1892 17.1328 10.4567 16.0365C9.72416 14.9402 9.33317 13.6512 9.33317 12.3327L9.33984 12.0433C9.4144 10.327 10.1486 8.70572 11.3895 7.51756C12.6303 6.3294 14.2819 5.66611 15.9998 5.66602Z" fill="#908B8B"/>
<path d="M18.6665 21.666C20.4346 21.666 22.1303 22.3684 23.3806 23.6186C24.6308 24.8689 25.3332 26.5646 25.3332 28.3327V29.666C25.3332 30.3733 25.0522 31.0515 24.5521 31.5516C24.052 32.0517 23.3737 32.3327 22.6665 32.3327H9.33317C8.62593 32.3327 7.94765 32.0517 7.44755 31.5516C6.94746 31.0515 6.6665 30.3733 6.6665 29.666V28.3327C6.6665 26.5646 7.36888 24.8689 8.61913 23.6186C9.86937 22.3684 11.5651 21.666 13.3332 21.666H18.6665Z" fill="#908B8B"/>
<path d="M15.9998 5.66602C17.3184 5.66602 18.6073 6.05701 19.7036 6.78955C20.8 7.52209 21.6545 8.56329 22.159 9.78146C22.6636 10.9996 22.7956 12.3401 22.5384 13.6333C22.2812 14.9265 21.6462 16.1144 20.7139 17.0467C19.7815 17.9791 18.5936 18.614 17.3004 18.8713C16.0072 19.1285 14.6668 18.9965 13.4486 18.4919C12.2304 17.9873 11.1892 17.1328 10.4567 16.0365C9.72416 14.9402 9.33317 13.6512 9.33317 12.3327L9.33984 12.0433C9.4144 10.327 10.1486 8.70572 11.3895 7.51756C12.6303 6.3294 14.2819 5.66611 15.9998 5.66602Z" stroke="#908B8B"/>
<path d="M18.6665 21.666C20.4346 21.666 22.1303 22.3684 23.3806 23.6186C24.6308 24.8689 25.3332 26.5646 25.3332 28.3327V29.666C25.3332 30.3733 25.0522 31.0515 24.5521 31.5516C24.052 32.0517 23.3737 32.3327 22.6665 32.3327H9.33317C8.62593 32.3327 7.94765 32.0517 7.44755 31.5516C6.94746 31.0515 6.6665 30.3733 6.6665 29.666V28.3327C6.6665 26.5646 7.36888 24.8689 8.61913 23.6186C9.86937 22.3684 11.5651 21.666 13.3332 21.666H18.6665Z" stroke="#908B8B"/>
</g>
<defs>
<clipPath id="clip0_4288_15220">
<rect width="32" height="32" rx="16" fill="white"/>
</clipPath>
</defs>
</svg>
