<svg width="20" height="20" viewBox="0 0 20 20" fill="none" xmlns="http://www.w3.org/2000/svg">
<path d="M10 6V10L12 12M1.0498 9.00007C1.2739 6.80013 2.30007 4.75968 3.93254 3.26803C5.56501 1.77639 7.6895 0.937953 9.90068 0.912697C12.1119 0.887441 14.255 1.67713 15.9211 3.1311C17.5872 4.58507 18.6597 6.60155 18.934 8.7958C19.2083 10.99 18.6651 13.2085 17.4082 15.0278C16.1512 16.8472 14.2684 18.1401 12.1191 18.6599C9.96972 19.1797 7.70421 18.89 5.7548 17.8461C3.80539 16.8022 2.30853 15.0772 1.5498 13.0001M1.0498 18.0001V13.0001H6.0498" stroke="#746E6E" stroke-width="1.5" stroke-linecap="round" stroke-linejoin="round"/>
</svg>
