<svg width="20" height="20" viewBox="0 0 20 20" fill="none" xmlns="http://www.w3.org/2000/svg">
<path d="M10 6.00195V10.002L12 12.002M1.0498 9.00202C1.2739 6.80208 2.30007 4.76163 3.93254 3.26999C5.56501 1.77834 7.6895 0.939906 9.90068 0.91465C12.1119 0.889394 14.255 1.67908 15.9211 3.13306C17.5872 4.58703 18.6597 6.6035 18.934 8.79775C19.2083 10.992 18.6651 13.2104 17.4082 15.0298C16.1512 16.8491 14.2684 18.1421 12.1191 18.6619C9.96972 19.1817 7.70421 18.892 5.7548 17.8481C3.80539 16.8042 2.30853 15.0791 1.5498 13.002M1.0498 18.002V13.002H6.0498" stroke="#D5230D" stroke-width="1.5" stroke-linecap="round" stroke-linejoin="round"/>
</svg>
