<svg width="16" height="20" viewBox="0 0 16 20" fill="none" xmlns="http://www.w3.org/2000/svg">
<path d="M13.997 2.17C14.5827 2.37638 15.09 2.75945 15.4487 3.26635C15.8075 3.77324 16.0001 4.37899 16 5V17C16 17.7956 15.6839 18.5587 15.1213 19.1213C14.5587 19.6839 13.7956 20 13 20H3C2.20435 20 1.44129 19.6839 0.87868 19.1213C0.316071 18.5587 4.40551e-08 17.7956 4.40551e-08 17V5C-0.000106354 4.37899 0.192512 3.77324 0.551281 3.26635C0.910049 2.75945 1.41728 2.37638 2.003 2.17C2.04684 3.20061 2.48713 4.17443 3.23194 4.88812C3.97674 5.6018 4.96846 6.00016 6 6H10C10.9912 6.00009 11.947 5.63219 12.6824 4.96761C13.4177 4.30303 13.8801 3.38911 13.98 2.403L13.997 2.17ZM5 10C4.73478 10 4.48043 10.1054 4.29289 10.2929C4.10536 10.4804 4 10.7348 4 11V15C4 15.2652 4.10536 15.5196 4.29289 15.7071C4.48043 15.8946 4.73478 16 5 16C5.26522 16 5.51957 15.8946 5.70711 15.7071C5.89464 15.5196 6 15.2652 6 15V11C6 10.7348 5.89464 10.4804 5.70711 10.2929C5.51957 10.1054 5.26522 10 5 10ZM8 13C7.73478 13 7.48043 13.1054 7.29289 13.2929C7.10536 13.4804 7 13.7348 7 14V15C7 15.2652 7.10536 15.5196 7.29289 15.7071C7.48043 15.8946 7.73478 16 8 16L8.117 15.993C8.36025 15.9643 8.58453 15.8474 8.74728 15.6644C8.91004 15.4813 8.99997 15.2449 9 15V14C9 13.7348 8.89464 13.4804 8.70711 13.2929C8.51957 13.1054 8.26522 13 8 13ZM11 12C10.7348 12 10.4804 12.1054 10.2929 12.2929C10.1054 12.4804 10 12.7348 10 13V15C10 15.2652 10.1054 15.5196 10.2929 15.7071C10.4804 15.8946 10.7348 16 11 16C11.2652 16 11.5196 15.8946 11.7071 15.7071C11.8946 15.5196 12 15.2652 12 15V13C12 12.7348 11.8946 12.4804 11.7071 12.2929C11.5196 12.1054 11.2652 12 11 12ZM10 0C10.5304 0 11.0391 0.210714 11.4142 0.585786C11.7893 0.960859 12 1.46957 12 2C12 2.53043 11.7893 3.03914 11.4142 3.41421C11.0391 3.78929 10.5304 4 10 4H6C5.46957 4 4.96086 3.78929 4.58579 3.41421C4.21071 3.03914 4 2.53043 4 2C4 1.46957 4.21071 0.960859 4.58579 0.585786C4.96086 0.210714 5.46957 0 6 0H10Z" fill="#D5230D"/>
</svg>
