<svg width="32" height="32" viewBox="0 0 32 32" fill="none" xmlns="http://www.w3.org/2000/svg">
<path d="M20 10.6667H20.0133M4 21.3333L10.6667 14.6666C11.904 13.4759 13.4293 13.4759 14.6667 14.6666L21.3333 21.3333M18.6667 18.6666L20 17.3333C21.2373 16.1426 22.7627 16.1426 24 17.3333L28 21.3333M4 8C4 6.93913 4.42143 5.92172 5.17157 5.17157C5.92172 4.42143 6.93913 4 8 4H24C25.0609 4 26.0783 4.42143 26.8284 5.17157C27.5786 5.92172 28 6.93913 28 8V24C28 25.0609 27.5786 26.0783 26.8284 26.8284C26.0783 27.5786 25.0609 28 24 28H8C6.93913 28 5.92172 27.5786 5.17157 26.8284C4.42143 26.0783 4 25.0609 4 24V8Z" stroke="#312E2E" stroke-width="2" stroke-linecap="round" stroke-linejoin="round"/>
</svg>
